<svg
  width="512"
  height="512"
  viewBox="0 0 512 512"
  fill="none"
  xmlns="http://www.w3.org/2000/svg"
>
  <circle
    cx="256"
    cy="256"
    r="256"
    fill="white"
  />
  <path
    d="M252.25 256.75C252.25 244.083 254.083 232.083 257.75 220.75C261.583 209.25 267.083 199.167 274.25 190.5C281.417 181.833 290.167 175 300.5 170C311 164.833 323 162.25 336.5 162.25C345.667 162.25 354.417 163.583 362.75 166.25C371.083 168.917 378.5 172.833 385 178C391.667 183.167 397.25 189.417 401.75 196.75C406.25 204.083 409.25 212.417 410.75 221.75H400.25C396.083 206.083 388.583 193.833 377.75 185C366.917 176.167 353.25 171.75 336.75 171.75C324.75 171.75 314.167 174.083 305 178.75C295.833 183.417 288.167 189.667 282 197.5C275.833 205.333 271.167 214.417 268 224.75C264.833 234.917 263.25 245.583 263.25 256.75C263.25 268.083 264.75 278.833 267.75 289C270.917 299 275.5 307.75 281.5 315.25C287.667 322.75 295.333 328.75 304.5 333.25C313.667 337.583 324.417 339.75 336.75 339.75C347.417 339.75 357 338 365.5 334.5C374 331 381.167 326.083 387 319.75C393 313.417 397.5 305.833 400.5 297C403.5 288 404.75 278 404.25 267H338.5V257.5H413.75V345H404.25V307H403.75C401.583 313.5 398.333 319.417 394 324.75C389.667 329.917 384.5 334.333 378.5 338C372.667 341.5 366.083 344.25 358.75 346.25C351.583 348.25 344.083 349.25 336.25 349.25C322.75 349.25 310.75 346.833 300.25 342C289.917 337.167 281.167 330.583 274 322.25C266.833 313.917 261.417 304.167 257.75 293C254.083 281.667 252.25 269.583 252.25 256.75Z"
    fill="black"
  />
  <path
    d="M165.5 130.8H179.9L264.5 345H250.4L223.4 276.3H120.8L93.5 345H79.4L165.5 130.8ZM219.2 264.9L173.3 143.7H172.7L125 264.9H219.2Z"
    fill="black"
  />
</svg>
